<?xml version="1.0" encoding="UTF-8"?>
<!DOCTYPE svg PUBLIC "-//W3C//DTD SVG 1.1//EN" "http://www.w3.org/Graphics/SVG/1.1/DTD/svg11.dtd">
<!-- Creator: CorelDRAW -->
<svg xmlns="http://www.w3.org/2000/svg" xml:space="preserve" width="7.6242mm" height="3.1749mm" version="1.1" style="shape-rendering:geometricPrecision; text-rendering:geometricPrecision; image-rendering:optimizeQuality; fill-rule:evenodd; clip-rule:evenodd"
viewBox="0 0 757.59 315.48"
 xmlns:xlink="http://www.w3.org/1999/xlink"
 xmlns:xodm="http://www.corel.com/coreldraw/odm/2003">
 <defs>
  <style type="text/css">
   <![CDATA[
    .fil2 {fill:none;fill-rule:nonzero}
    .fil1 {fill:none;fill-rule:nonzero}
    .fil0 {fill:#9873FF;fill-rule:nonzero;fill-opacity:0.7}
   ]]>
  </style>
   <clipPath id="id0" style="clip-rule:nonzero">
    <path d="M315.49 0l-315.49 0 0 315.48 315.49 0 0 -315.48z"/>
   </clipPath>
   <clipPath id="id1" style="clip-rule:nonzero">
    <path d="M315.49 0l-315.49 0 0 315.48 315.49 0 0 -315.48z"/>
   </clipPath>
 </defs>
 <g id="Слой_x0020_1">
  <metadata id="CorelCorpID_0Corel-Layer"/>
  <path class="fil0" d="M724.98 262.9l-18.74 -52.12 -71.76 0 -18.35 52.12 -32.35 0 70.22 -188.45 33.38 0 70.22 188.45 -32.61 0zm-26.83 -78.56l-17.59 -51.09c-1.28,-3.42 -3.08,-8.81 -5.39,-16.18 -2.23,-7.35 -3.77,-12.75 -4.62,-16.18 -2.32,10.53 -5.69,22.04 -10.15,34.54l-16.94 48.91 54.68 0z"/>
  <path class="fil0" d="M431.08 100.9l-24.39 0c-12.92,0 -22.84,2.32 -29.78,6.94 -6.85,4.54 -10.27,11.98 -10.27,22.34 0,10.1 3.34,17.98 10.02,23.62 6.68,5.65 17.03,8.48 31.07,8.48l23.36 0 0 -61.37zm-31.33 86.79l-46.46 75.22 -35.05 0 52.89 -82.29c-23.97,-8.3 -35.95,-25.76 -35.95,-52.38 0,-17.2 5.95,-30.34 17.85,-39.41 11.89,-9.07 29.39,-13.6 52.51,-13.6l56.35 0 0 187.67 -30.8 0 0 -75.22 -31.33 0z"/>
  <polygon class="fil0" points="498.54,205.27 498.54,179.6 564.53,179.6 564.53,205.27 "/>
  <g style="clip-path:url(#id0)">
   <polygon class="fil1" points="-0,0 315.49,0 315.49,315.48 -0,315.48 "/>
  </g>
  <g style="clip-path:url(#id1)">
   <g id="_2521577422064">
    <polygon id="_1" class="fil0" points="52.58,157.74 71.13,176.28 144.61,102.92 144.61,262.9 170.9,262.9 170.9,102.92 244.24,176.42 262.91,157.74 157.75,52.58 "/>
   </g>
  </g>
  <polygon class="fil2" points="315.49,0 -0,0 -0,315.48 315.49,315.48 "/>
 </g>
</svg>
